ply
format ascii 1.0
comment Created by Blender 2.64 (sub 0) - www.blender.org, source file: 'satallite.blend'
element vertex 262
property float x
property float y
property float z
property float nx
property float ny
property float nz
element face 107
property list uchar uint vertex_indices
end_header
0.738160 -2.079305 -0.261435 0.382155 -0.000000 0.924098
-0.685248 -2.079305 0.327206 0.382155 -0.000000 0.924098
-0.685248 -7.489604 0.327206 0.382155 -0.000000 0.924098
0.738160 -7.489604 -0.261435 0.382155 -0.000000 0.924098
-0.738160 -7.489604 0.261434 -0.382155 0.000000 -0.924098
-0.738160 -2.079305 0.261435 -0.382155 0.000000 -0.924098
0.685249 -2.079305 -0.327207 -0.382155 0.000000 -0.924098
0.685249 -7.489604 -0.327207 -0.382155 0.000000 -0.924098
-0.738160 -2.079305 0.261435 0.000000 1.000000 -0.000000
-0.685248 -2.079305 0.327206 0.000000 1.000000 -0.000000
0.738160 -2.079305 -0.261435 0.000000 1.000000 -0.000000
0.685249 -2.079305 -0.327207 0.000000 1.000000 -0.000000
-0.685248 -7.489604 0.327206 0.000000 -1.000000 0.000000
-0.738160 -7.489604 0.261434 0.000000 -1.000000 0.000000
0.685249 -7.489604 -0.327207 0.000000 -1.000000 0.000000
0.738160 -7.489604 -0.261435 0.000000 -1.000000 0.000000
0.738160 -7.489604 -0.261435 0.779166 0.000000 -0.626818
0.685249 -7.489604 -0.327207 0.779166 0.000000 -0.626818
0.685249 -2.079305 -0.327207 0.779166 0.000000 -0.626818
0.738160 -2.079305 -0.261435 0.779166 0.000000 -0.626818
-0.685248 -2.079305 0.327206 -0.779166 -0.000000 0.626818
-0.738160 -2.079305 0.261435 -0.779166 -0.000000 0.626818
-0.738160 -7.489604 0.261434 -0.779166 -0.000000 0.626818
-0.685248 -7.489604 0.327206 -0.779166 -0.000000 0.626818
0.685248 7.489604 -0.327206 -0.382155 0.000000 -0.924098
0.685248 2.079306 -0.327207 -0.382155 0.000000 -0.924098
-0.738160 2.079306 0.261435 -0.382155 0.000000 -0.924098
-0.738160 7.489605 0.261435 -0.382155 0.000000 -0.924098
0.738160 7.489604 -0.261434 0.382155 -0.000000 0.924098
-0.685249 7.489605 0.327207 0.382155 -0.000000 0.924098
-0.685249 2.079306 0.327206 0.382155 -0.000000 0.924098
0.738160 2.079306 -0.261435 0.382155 -0.000000 0.924098
0.738160 2.079306 -0.261435 -0.000000 -1.000000 0.000000
-0.685249 2.079306 0.327206 -0.000000 -1.000000 0.000000
-0.738160 2.079306 0.261435 -0.000000 -1.000000 0.000000
0.685248 2.079306 -0.327207 -0.000000 -1.000000 0.000000
0.685248 7.489604 -0.327206 0.000000 1.000000 -0.000000
-0.738160 7.489605 0.261435 0.000000 1.000000 -0.000000
-0.685249 7.489605 0.327207 0.000000 1.000000 -0.000000
0.738160 7.489604 -0.261434 0.000000 1.000000 -0.000000
-0.738160 7.489605 0.261435 -0.779166 -0.000000 0.626818
-0.738160 2.079306 0.261435 -0.779166 -0.000000 0.626818
-0.685249 2.079306 0.327206 -0.779166 -0.000000 0.626818
-0.685249 7.489605 0.327207 -0.779166 -0.000000 0.626818
0.685248 2.079306 -0.327207 0.779166 0.000000 -0.626818
0.685248 7.489604 -0.327206 0.779166 0.000000 -0.626818
0.738160 7.489604 -0.261434 0.779166 0.000000 -0.626818
0.738160 2.079306 -0.261435 0.779166 0.000000 -0.626818
0.000000 1.000000 -1.000000 0.000000 1.000000 0.000000
0.000000 1.000000 1.000000 0.000000 0.594348 -0.804163
0.707107 0.707107 1.000000 0.420270 0.420270 -0.804163
0.707107 0.707107 -1.000000 0.707083 0.707083 0.000000
1.000000 -0.000000 1.000000 0.594348 0.000000 -0.804163
1.000000 -0.000000 -1.000000 1.000000 0.000000 0.000000
0.707107 -0.707107 1.000000 0.420270 -0.420270 -0.804163
0.707107 -0.707107 -1.000000 0.707083 -0.707083 0.000000
-0.000000 -1.000000 1.000000 0.000000 -0.594348 -0.804163
-0.000000 -1.000000 -1.000000 0.000000 -1.000000 0.000000
-0.707107 -0.707107 1.000000 -0.420270 -0.420270 -0.804163
-0.707107 -0.707107 -1.000000 -0.707083 -0.707083 0.000000
-1.000000 0.000000 1.000000 -0.594348 0.000000 -0.804163
-1.000000 0.000000 -1.000000 -1.000000 0.000000 0.000000
-0.707107 -0.707107 1.000000 0.000000 0.000000 -1.000000
-0.000000 -1.000000 1.000000 0.000000 0.000000 -1.000000
-0.000000 -1.365582 1.000000 0.000000 0.000000 -1.000000
-0.965612 -0.965612 1.000000 0.000000 0.000000 -1.000000
-0.707107 0.707107 -1.000000 -0.707083 0.707083 0.000000
-0.707107 0.707107 1.000000 -0.420270 0.420270 -0.804163
1.000000 -0.000000 -1.000000 0.000000 0.000000 0.000000
0.707107 -0.707107 -1.000000 0.000000 0.000000 0.000000
0.707107 -0.707107 -1.000000 0.000000 0.000000 0.000000
1.000000 -0.000000 -1.000000 0.000000 0.000000 0.000000
-0.707107 0.707107 -1.000000 -0.000000 0.000000 1.000000
0.000000 1.000000 -1.000000 -0.000000 0.000000 1.000000
0.000000 1.145851 -1.000000 -0.000000 0.000000 1.000000
-0.810239 0.810239 -1.000000 -0.000000 0.000000 1.000000
0.000000 1.000000 -1.000000 0.000000 0.000000 0.000000
0.707107 0.707107 -1.000000 0.000000 0.000000 0.000000
0.707107 0.707107 -1.000000 0.000000 0.000000 0.000000
0.000000 1.000000 -1.000000 0.000000 0.000000 0.000000
-0.000000 -1.000000 -1.000000 0.000000 0.000000 0.000000
-0.000000 -1.000000 -1.000000 0.000000 0.000000 0.000000
-0.707107 -0.707107 -1.000000 0.000000 0.000000 0.000000
-0.707107 -0.707107 -1.000000 0.000000 0.000000 0.000000
-1.000000 0.000000 -1.000000 0.000000 0.000000 0.000000
-1.000000 0.000000 -1.000000 0.000000 0.000000 0.000000
-0.707107 0.707107 -1.000000 0.000000 0.000000 0.000000
-0.707107 0.707107 -1.000000 0.000000 0.000000 0.000000
0.810239 0.810239 -1.000000 0.923880 0.382683 0.000000
1.145851 -0.000000 -1.000000 0.923880 0.382683 0.000000
1.145851 -0.000000 -1.335258 0.923880 0.382683 0.000000
0.810239 0.810239 -1.335258 0.923880 0.382683 0.000000
0.707107 0.707107 -1.000000 0.000000 0.000000 1.000000
0.810239 0.810239 -1.000000 0.000000 0.000000 1.000000
0.707107 -0.707107 -1.000000 0.000000 -0.000000 1.000000
-0.000000 -1.000000 -1.000000 0.000000 -0.000000 1.000000
-0.000000 -1.145851 -1.000000 0.000000 -0.000000 1.000000
0.810239 -0.810239 -1.000000 0.000000 -0.000000 1.000000
-1.000000 0.000000 -1.000000 -0.000000 0.000000 1.000000
-1.145851 0.000000 -1.000000 -0.000000 0.000000 1.000000
1.000000 -0.000000 -1.000000 0.000000 -0.000000 1.000000
1.145851 -0.000000 -1.000000 0.000000 -0.000000 1.000000
-0.707107 -0.707107 -1.000000 -0.000000 -0.000000 1.000000
-0.810239 -0.810239 -1.000000 -0.000000 -0.000000 1.000000
1.145851 -0.000000 -1.335258 0.000000 -0.000000 -1.000000
0.810239 -0.810239 -1.335258 0.000000 -0.000000 -1.000000
0.729215 -0.729215 -1.335258 0.000000 -0.000000 -1.000000
1.031266 -0.000000 -1.335258 0.000000 -0.000000 -1.000000
-0.000000 -1.145851 -1.000000 -0.382684 -0.923879 0.000000
-0.810239 -0.810239 -1.000000 -0.382684 -0.923879 0.000000
-0.810239 -0.810239 -1.335258 -0.382684 -0.923879 0.000000
-0.000000 -1.145851 -1.335258 -0.382684 -0.923879 0.000000
-0.810239 0.810239 -1.000000 -0.382684 0.923880 0.000000
0.000000 1.145851 -1.000000 -0.382684 0.923880 0.000000
0.000000 1.145851 -1.335258 -0.382684 0.923880 0.000000
-0.810239 0.810239 -1.335258 -0.382684 0.923880 0.000000
0.000000 1.145851 -1.000000 0.382683 0.923879 0.000000
0.810239 0.810239 -1.000000 0.382683 0.923879 0.000000
0.810239 0.810239 -1.335258 0.382683 0.923879 0.000000
0.000000 1.145851 -1.335258 0.382683 0.923879 0.000000
0.810239 -0.810239 -1.000000 0.382683 -0.923880 0.000000
-0.000000 -1.145851 -1.000000 0.382683 -0.923880 0.000000
-0.000000 -1.145851 -1.335258 0.382683 -0.923880 0.000000
0.810239 -0.810239 -1.335258 0.382683 -0.923880 0.000000
-1.145851 0.000000 -1.000000 -0.923880 0.382683 0.000000
-0.810239 0.810239 -1.000000 -0.923880 0.382683 0.000000
-0.810239 0.810239 -1.335258 -0.923880 0.382683 0.000000
-1.145851 0.000000 -1.335258 -0.923880 0.382683 0.000000
1.145851 -0.000000 -1.000000 0.923879 -0.382683 0.000000
0.810239 -0.810239 -1.000000 0.923879 -0.382683 0.000000
0.810239 -0.810239 -1.335258 0.923879 -0.382683 0.000000
1.145851 -0.000000 -1.335258 0.923879 -0.382683 0.000000
-0.810239 -0.810239 -1.000000 -0.923880 -0.382683 0.000000
-1.145851 0.000000 -1.000000 -0.923880 -0.382683 0.000000
-1.145851 0.000000 -1.335258 -0.923880 -0.382683 0.000000
-0.810239 -0.810239 -1.335258 -0.923880 -0.382683 0.000000
0.729215 -0.729215 -1.335258 0.420270 -0.420270 -0.804163
-0.000000 -1.031266 -1.335258 0.000000 -0.594348 -0.804163
-0.000000 -1.031266 -1.411918 0.000000 -0.776360 -0.630238
0.729215 -0.729215 -1.411918 0.548967 -0.548967 -0.630238
-0.810239 -0.810239 -1.335258 -0.000000 -0.000000 -1.000000
-1.145851 0.000000 -1.335258 -0.000000 -0.000000 -1.000000
-1.031266 0.000000 -1.335258 -0.000000 -0.000000 -1.000000
-0.729216 -0.729215 -1.335258 -0.000000 -0.000000 -1.000000
0.810239 0.810239 -1.335258 0.000000 0.000000 -1.000000
0.729215 0.729215 -1.335258 0.000000 0.000000 -1.000000
-0.000000 -1.145851 -1.335258 -0.000000 -0.000000 -1.000000
-0.000000 -1.031266 -1.335258 -0.000000 -0.000000 -1.000000
-0.810239 0.810239 -1.335258 -0.000000 0.000000 -1.000000
0.000000 1.145851 -1.335258 -0.000000 0.000000 -1.000000
-0.000000 1.031266 -1.335258 -0.000000 0.000000 -1.000000
-0.729216 0.729215 -1.335258 -0.000000 0.000000 -1.000000
-0.000000 1.031266 -1.411918 0.000000 0.000000 -1.000000
0.729215 0.729215 -1.411918 0.000000 0.000000 -1.000000
-0.729216 0.729215 -1.411918 0.000000 0.000000 -1.000000
1.031266 -0.000000 -1.411918 0.000000 0.000000 -1.000000
-1.031266 0.000000 -1.411918 0.000000 -0.000000 -1.000000
-0.729216 -0.729215 -1.411918 0.000000 0.000000 -1.000000
0.729215 -0.729215 -1.411918 0.000000 0.000000 -1.000000
-0.000000 -1.031266 -1.411918 0.000000 0.000000 -1.000000
-1.031266 0.000000 -1.335258 -0.594348 0.000000 -0.804163
-0.729216 0.729215 -1.335258 -0.420270 0.420270 -0.804163
-0.729216 0.729215 -1.411918 -0.548967 0.548967 -0.630238
-1.031266 0.000000 -1.411918 -0.776360 0.000000 -0.630238
1.031266 -0.000000 -1.335258 0.594348 0.000000 -0.804163
1.031266 -0.000000 -1.411918 0.776360 0.000000 -0.630238
-0.729216 -0.729215 -1.335258 -0.420270 -0.420270 -0.804163
-0.729216 -0.729215 -1.411918 -0.548967 -0.548967 -0.630238
0.729215 0.729215 -1.335258 0.420270 0.420270 -0.804163
0.729215 0.729215 -1.411918 0.548967 0.548967 -0.630238
-0.000000 1.031266 -1.335258 0.000000 0.594348 -0.804163
-0.000000 1.031266 -1.411918 0.000000 0.776360 -0.630238
-1.365582 0.000000 1.000000 -0.923880 -0.382683 0.000000
-0.965612 -0.965612 1.000000 -0.923880 -0.382683 0.000000
-0.965612 -0.965612 1.209166 -0.923880 -0.382683 0.000000
-1.365582 0.000000 1.209166 -0.923880 -0.382683 0.000000
-1.000000 0.000000 1.000000 0.000000 0.000000 -1.000000
-1.365582 0.000000 1.000000 0.000000 0.000000 -1.000000
-0.707107 0.707107 1.000000 0.000000 -0.000000 -1.000000
-0.965612 0.965612 1.000000 0.000000 -0.000000 -1.000000
0.000000 1.000000 1.000000 0.000000 -0.000000 -1.000000
0.000000 1.365582 1.000000 0.000000 -0.000000 -1.000000
1.000000 -0.000000 1.000000 -0.000000 -0.000000 -1.000000
0.707107 0.707107 1.000000 -0.000000 -0.000000 -1.000000
0.965612 0.965612 1.000000 -0.000000 -0.000000 -1.000000
1.365582 -0.000000 1.000000 -0.000000 -0.000000 -1.000000
0.707107 -0.707107 1.000000 -0.000000 0.000000 -1.000000
0.965612 -0.965612 1.000000 -0.000000 0.000000 -1.000000
-0.965612 0.965612 1.209166 0.000000 -0.000000 1.000000
-1.365582 0.000000 1.209166 0.000000 -0.000000 1.000000
-1.257197 0.000000 1.209166 0.000000 -0.000000 1.000000
-0.888973 0.888973 1.209166 0.000000 -0.000000 1.000000
1.365582 -0.000000 1.000000 0.923879 0.382683 0.000000
0.965612 0.965612 1.000000 0.923879 0.382683 0.000000
0.965612 0.965612 1.209166 0.923879 0.382683 0.000000
1.365582 -0.000000 1.209166 0.923879 0.382683 0.000000
-0.965612 -0.965612 1.000000 -0.382684 -0.923879 0.000000
-0.000000 -1.365582 1.000000 -0.382684 -0.923879 0.000000
-0.000000 -1.365582 1.209166 -0.382684 -0.923879 0.000000
-0.965612 -0.965612 1.209166 -0.382684 -0.923879 0.000000
0.000000 1.365582 1.000000 -0.382684 0.923880 0.000000
-0.965612 0.965612 1.000000 -0.382684 0.923880 0.000000
-0.965612 0.965612 1.209166 -0.382684 0.923880 0.000000
-0.000000 1.365582 1.209166 -0.382684 0.923880 0.000000
0.965612 0.965612 1.000000 0.382683 0.923880 0.000000
0.000000 1.365582 1.000000 0.382683 0.923880 0.000000
-0.000000 1.365582 1.209166 0.382683 0.923880 0.000000
0.965612 0.965612 1.209166 0.382683 0.923880 0.000000
-0.000000 -1.365582 1.000000 0.382683 -0.923880 0.000000
0.965612 -0.965612 1.000000 0.382683 -0.923880 0.000000
0.965612 -0.965612 1.209166 0.382683 -0.923880 0.000000
-0.000000 -1.365582 1.209166 0.382683 -0.923880 0.000000
-0.965612 0.965612 1.000000 -0.923880 0.382683 0.000000
-1.365582 0.000000 1.000000 -0.923880 0.382683 0.000000
-1.365582 0.000000 1.209166 -0.923880 0.382683 0.000000
-0.965612 0.965612 1.209166 -0.923880 0.382683 0.000000
0.965612 -0.965612 1.000000 0.923880 -0.382684 0.000000
1.365582 -0.000000 1.000000 0.923880 -0.382684 0.000000
1.365582 -0.000000 1.209166 0.923880 -0.382684 0.000000
0.965612 -0.965612 1.209166 0.923880 -0.382684 0.000000
-0.000000 1.257197 1.209166 0.000000 0.594348 0.804163
-0.888973 0.888973 1.209166 -0.420270 0.420270 0.804163
-0.888973 0.888973 1.286031 -0.548967 0.548967 0.630238
-0.000000 1.257197 1.286031 0.000000 0.776360 0.630238
0.965612 -0.965612 1.209166 -0.000000 0.000000 1.000000
1.365582 -0.000000 1.209166 -0.000000 0.000000 1.000000
1.257197 -0.000000 1.209166 -0.000000 0.000000 1.000000
0.888973 -0.888973 1.209166 -0.000000 0.000000 1.000000
-0.965612 -0.965612 1.209166 0.000000 0.000000 1.000000
-0.888973 -0.888973 1.209166 0.000000 0.000000 1.000000
0.965612 0.965612 1.209166 -0.000000 -0.000000 1.000000
0.888973 0.888973 1.209166 -0.000000 -0.000000 1.000000
-0.000000 -1.365582 1.209166 0.000000 0.000000 1.000000
-0.000000 -1.257197 1.209166 0.000000 0.000000 1.000000
-0.000000 1.365582 1.209166 0.000000 -0.000000 1.000000
-0.000000 1.257197 1.209166 0.000000 -0.000000 1.000000
0.888973 0.888973 1.286031 -0.000000 0.000000 1.000000
-0.000000 1.257197 1.286031 -0.000000 0.000000 1.000000
-0.888973 0.888973 1.286031 -0.000000 0.000000 1.000000
1.257197 -0.000000 1.286031 0.000000 -0.000000 1.000000
-1.257197 0.000000 1.286031 0.000000 -0.000000 1.000000
-0.888973 -0.888973 1.286031 0.000000 0.000000 1.000000
0.888973 -0.888973 1.286031 0.000000 0.000000 1.000000
-0.000000 -1.257197 1.286031 0.000000 0.000000 1.000000
0.888973 0.888973 1.209166 0.420270 0.420270 0.804163
0.888973 0.888973 1.286031 0.548967 0.548967 0.630238
-0.000000 -1.257197 1.209166 0.000000 -0.594348 0.804163
0.888973 -0.888973 1.209166 0.420270 -0.420270 0.804163
0.888973 -0.888973 1.286031 0.548967 -0.548967 0.630238
-0.000000 -1.257197 1.286031 0.000000 -0.776360 0.630238
-1.257197 0.000000 1.209166 -0.594348 0.000000 0.804163
-1.257197 0.000000 1.286031 -0.776360 0.000000 0.630238
1.257197 -0.000000 1.209166 0.594348 0.000000 0.804163
1.257197 -0.000000 1.286031 0.776360 0.000000 0.630238
-0.888973 -0.888973 1.209166 -0.420270 -0.420270 0.804163
-0.888973 -0.888973 1.286031 -0.548967 -0.548967 0.630238
0.037764 2.090664 0.000000 1.000000 0.000000 0.000000
0.037764 -2.090664 0.000000 1.000000 0.000000 0.000000
-0.018882 -2.090664 -0.023449 -0.555650 0.000000 -0.831385
-0.018882 2.090664 -0.023449 -0.555650 0.000000 -0.831385
-0.018882 -2.090664 0.023449 -0.555650 0.000000 0.831385
-0.018882 2.090664 0.023449 -0.555650 0.000000 0.831385
4 0 1 2 3
4 4 5 6 7
4 8 9 10 11
4 12 13 14 15
4 16 17 18 19
4 20 21 22 23
4 24 25 26 27
4 28 29 30 31
4 32 33 34 35
4 36 37 38 39
4 40 41 42 43
4 44 45 46 47
4 48 49 50 51
4 51 50 52 53
4 53 52 54 55
4 55 54 56 57
4 57 56 58 59
4 59 58 60 61
4 62 63 64 65
4 66 67 49 48
4 61 60 67 66
4 68 69 70 71
4 72 73 74 75
4 76 77 78 79
4 69 80 81 70
4 80 82 83 81
4 82 84 85 83
4 84 86 87 85
4 86 76 79 87
4 77 68 71 78
4 88 89 90 91
4 73 92 93 74
4 94 95 96 97
4 98 72 75 99
4 100 94 97 101
4 102 98 99 103
4 92 100 101 93
4 95 102 103 96
4 104 105 106 107
4 108 109 110 111
4 112 113 114 115
4 116 117 118 119
4 120 121 122 123
4 124 125 126 127
4 128 129 130 131
4 132 133 134 135
4 136 137 138 139
4 140 141 142 143
4 144 104 107 145
4 146 140 143 147
4 148 149 150 151
4 149 144 145 150
4 105 146 147 106
4 141 148 151 142
3 152 153 154
3 153 155 154
3 155 156 154
3 155 157 156
3 155 158 157
3 158 159 157
4 160 161 162 163
4 164 136 139 165
4 166 160 163 167
4 168 164 165 169
4 137 166 167 138
4 161 170 171 162
4 170 168 169 171
4 172 173 174 175
4 176 62 65 177
4 178 176 177 179
4 180 178 179 181
4 182 183 184 185
4 186 182 185 187
4 183 180 181 184
4 63 186 187 64
4 188 189 190 191
4 192 193 194 195
4 196 197 198 199
4 200 201 202 203
4 204 205 206 207
4 208 209 210 211
4 212 213 214 215
4 216 217 218 219
4 220 221 222 223
4 224 225 226 227
4 189 228 229 190
4 225 230 231 226
4 228 232 233 229
4 234 188 191 235
4 230 234 235 231
4 232 224 227 233
3 236 237 238
3 236 238 239
3 238 240 239
3 240 241 239
3 241 242 239
3 241 243 242
4 244 220 223 245
4 246 247 248 249
4 221 250 251 222
4 247 252 253 248
4 250 254 255 251
4 252 244 245 253
4 254 246 249 255
4 256 257 258 259
4 259 258 260 261
4 261 260 257 256
