ply
format ascii 1.0
comment Created by Blender 2.64 (sub 0) - www.blender.org, source file: ''
element vertex 52
property float x
property float y
property float z
property float nx
property float ny
property float nz
element face 20
property list uchar uint vertex_indices
end_header
-0.866025 0.559878 0.500000 -0.917663 0.397360 0.000000
0.000000 2.559878 -0.000000 -0.917663 0.397360 0.000000
-0.866025 0.559878 -0.500000 -0.917663 0.397360 0.000000
0.000000 0.559878 -1.000000 0.458831 0.397360 -0.794720
0.000000 2.559878 -0.000000 0.458831 0.397360 -0.794720
0.866026 0.559878 -0.500000 0.458831 0.397360 -0.794720
0.000000 2.559878 -0.000000 -0.458832 0.397360 -0.794719
0.000000 0.559878 -1.000000 -0.458832 0.397360 -0.794719
-0.866025 0.559878 -0.500000 -0.458832 0.397360 -0.794719
0.866026 0.559878 -0.500000 0.917663 0.397360 0.000001
0.000000 2.559878 -0.000000 0.917663 0.397360 0.000001
0.866025 0.559878 0.500000 0.917663 0.397360 0.000001
0.000000 2.559878 -0.000000 -0.458832 0.397360 0.794719
-0.866025 0.559878 0.500000 -0.458832 0.397360 0.794719
-0.000000 0.559878 1.000000 -0.458832 0.397360 0.794719
0.866025 0.559878 0.500000 0.458832 0.397360 0.794719
0.000000 2.559878 -0.000000 0.458832 0.397360 0.794719
-0.000000 0.559878 1.000000 0.458832 0.397360 0.794719
-1.169936 -0.666557 0.675462 -0.917663 0.397360 0.000000
0.000000 2.035294 -0.000000 -0.917663 0.397360 0.000000
-1.169936 -0.666557 -0.675463 -0.917663 0.397360 0.000000
0.000000 -0.666557 -1.350926 0.458832 0.397360 -0.794719
0.000000 2.035294 -0.000000 0.458832 0.397360 -0.794719
1.169936 -0.666557 -0.675463 0.458832 0.397360 -0.794719
-1.169936 -0.666557 -0.675463 -0.458832 0.397360 -0.794719
0.000000 2.035294 -0.000000 -0.458832 0.397360 -0.794719
0.000000 -0.666557 -1.350926 -0.458832 0.397360 -0.794719
1.169936 -0.666557 -0.675463 0.917663 0.397360 0.000000
0.000000 2.035294 -0.000000 0.917663 0.397360 0.000000
1.169936 -0.666557 0.675463 0.917663 0.397360 0.000000
-0.000000 -0.666557 1.350926 -0.458832 0.397360 0.794719
0.000000 2.035294 -0.000000 -0.458832 0.397360 0.794719
-1.169936 -0.666557 0.675462 -0.458832 0.397360 0.794719
1.169936 -0.666557 0.675463 0.458832 0.397360 0.794719
0.000000 2.035294 -0.000000 0.458832 0.397360 0.794719
-0.000000 -0.666557 1.350926 0.458832 0.397360 0.794719
0.000000 -1.687220 -0.292653 0.707107 0.000000 -0.707107
0.000000 0.698446 -0.292653 0.707107 0.000000 -0.707107
0.292653 0.698446 -0.000000 0.707107 0.000000 -0.707107
0.292653 -1.687220 -0.000000 0.707107 0.000000 0.707107
0.292653 0.698446 -0.000000 0.707107 0.000000 0.707107
-0.000000 0.698446 0.292653 0.707107 0.000000 0.707107
-0.292653 -1.687220 -0.000000 -0.707107 -0.000000 -0.707107
-0.292653 0.698446 -0.000000 -0.707107 -0.000000 -0.707107
0.000000 0.698446 -0.292653 -0.707107 -0.000000 -0.707107
-0.000000 -1.687220 0.292653 -0.707107 0.000000 0.707107
-0.000000 0.698446 0.292653 -0.707107 0.000000 0.707107
-0.292653 0.698446 -0.000000 -0.707107 0.000000 0.707107
0.292653 -1.687220 -0.000000 0.707107 0.000000 -0.707107
-0.000000 -1.687220 0.292653 0.707107 0.000000 0.707107
0.000000 -1.687220 -0.292653 -0.707107 0.000000 -0.707107
-0.292653 -1.687220 -0.000000 -0.707107 0.000000 0.707107
3 0 1 2
3 3 4 5
3 6 7 8
3 9 10 11
3 12 13 14
3 15 16 17
3 18 19 20
3 21 22 23
3 24 25 26
3 27 28 29
3 30 31 32
3 33 34 35
3 36 37 38
3 39 40 41
3 42 43 44
3 45 46 47
3 48 36 38
3 49 39 41
3 50 42 44
3 51 45 47
